<?xml version="1.0"?>
<!DOCTYPE svg PUBLIC "-//W3C//DTD SVG 1.1//EN" "http://www.w3.org/Graphics/SVG/1.1/DTD/svg11.dtd">
<svg version="1.1" xmlns="http://www.w3.org/2000/svg" xmlns:xlink="http://www.w3.org/1999/xlink" width="800px"
    height="900px" viewBox="0 0 4 4" preserveAspectRatio="xMidYMid">
    <defs>
        <g id="square" fill="none" stroke-width="0.015" stroke="black">
            <rect x="0.5" y="0.5" width="3" height="3" />
            <line x1="2.5" y1="0.5" x2="2.5" y2="3.5" />
            <line x1="0.5" y1="1.5" x2="3.5" y2="1.5" />
            <line x1="3.5" y1="0.5" x2="0.5" y2="3.5" />
            <line x1="0.5" y1="0.5" x2="3.5" y2="3.5" />
            <animateTransform attributeName="transform" type="rotate" from="0 2 2" to="360 2 2 " dur="5s"
                repeatCount="indefinite" />
        </g>

        <g id="bazaTrojkat">
            <polygon points="2,3 2.3,0.55 2.75,3" />
        </g>
        
        <g id="swing" stroke-width="0.25" stroke="red">
            <line x1="0.90" y1="0.95" x2="5.60" y2="1.95" />
        </g>
    </defs>

    <use xlink:href="#square" transform="scale(0.35,0.35) translate(4,3.5)" />
    <use xlink:href="#square" transform="scale(0.35,0.35) translate(8.5,4.4)" />
    <use xlink:href="#swing" transform="scale(0.35,0.35) translate(4,3.5)" />
    <use xlink:href="#bazaTrojkat" fill="blue" transform="scale(0.35,0.35) translate(4.8,4.4)" />

    <use xlink:href="#square" transform="scale(0.3,0.3) translate(0.5,0.5)" />
    <use xlink:href="#square" transform="scale(0.3,0.3) translate(5,1.4)" />
    <use xlink:href="#swing" transform="scale(0.3,0.3) translate(0.5,0.5)" />
    <use xlink:href="#bazaTrojkat" fill="purple" transform="scale(0.3,0.3) translate(1.3,1.4)" />

    <use xlink:href="#square" transform="scale(0.2,0.2) translate(12.5,0.5)" />
    <use xlink:href="#square" transform="scale(0.2,0.2) translate(17,1.4)" />
    <use xlink:href="#swing" transform="scale(0.2,0.2) translate(12.5,0.5)" />
    <use xlink:href="#bazaTrojkat" fill="green" transform="scale(0.2,0.2) translate(13.3,1.4)" />
</svg>
